<svg id="Capa_1" enable-background="new 0 0 511.553 511.553" height="512" viewBox="0 0 511.553 511.553" width="512" xmlns="http://www.w3.org/2000/svg"><g><g><path d="m410.686 271c-7.096 73.745-65.941 132.59-139.686 139.686v100.867c62.738-3.601 121.22-29.735 166.02-74.534 44.799-44.799 70.932-103.281 74.533-166.02h-100.867z"/><path d="m241 410.686c-78.683-7.571-140.413-74.051-140.413-154.686 0-36.471 12.482-71.022 35.418-98.782l-71.315-71.315c-41.816 46.91-64.69 106.742-64.69 170.097 0 68.38 26.628 132.667 74.98 181.019 44.799 44.799 103.281 70.933 166.02 74.534z"/><path d="m157.218 136.005c27.76-22.936 62.311-35.418 98.782-35.418 80.635 0 147.115 61.73 154.686 140.413h100.866c-3.601-62.739-29.735-121.221-74.533-166.019-48.352-48.353-112.639-74.981-181.019-74.981-63.355 0-123.188 22.874-170.097 64.69z"/></g><path d="m276.354 239.399c-13.569-4.796-28.577-10.59-36.994-17.191-2.645-2.074-3.789-6.824-2.848-11.819.47-2.492 2.664-10.821 11.184-13.388 13.988-4.212 23.58 1.375 27.055 3.973 6.636 4.959 16.035 3.602 20.995-3.033 4.961-6.635 3.603-16.035-3.032-20.996-3.148-2.354-11.034-7.514-22.34-10.02v-6.105c0-8.284-6.716-15-15-15s-15 6.716-15 15v7.083c-.443.124-.883.238-1.331.373-16.429 4.949-28.695 18.957-32.012 36.557-3.053 16.2 2.24 31.902 13.814 40.98 9.537 7.479 22.722 13.815 45.51 21.871 15.172 5.363 14.843 17.643 13.997 22.673-1.714 10.199-10.294 21.221-25.079 21.32-14.491.097-19.017-.621-30.156-7.908-6.933-4.535-16.229-2.592-20.764 4.341s-2.591 16.229 4.341 20.764c12.014 7.859 20.878 11.047 31.679 12.21v6.856c0 8.284 6.716 15 15 15 8.285 0 15-6.716 15-15v-8.297c8.263-2.275 15.794-6.431 22.23-12.345 9.121-8.38 15.276-19.733 17.333-31.967 4.185-24.875-9.312-47.352-33.582-55.932z"/></g></svg>