<svg xmlns="http://www.w3.org/2000/svg" width="45" height="25.835" viewBox="0 0 45 25.835">
  <g id="camioneta" transform="translate(0 -96.25)">
    <g id="Group_142" data-name="Group 142" transform="translate(0 96.25)">
      <path id="Path_81" data-name="Path 81" d="M43.427,104.812,40.371,103.5l-3.027-5.864a2.546,2.546,0,0,0-2.28-1.384H30.275a2.6,2.6,0,0,0-2.6,2.559V106.9H2.6A2.64,2.64,0,0,0,0,109.5v5.247a2.55,2.55,0,0,0,2.6,2.509H4.39a5.091,5.091,0,0,0,5.147,4.829,5.091,5.091,0,0,0,5.147-4.829H30.813a5.158,5.158,0,0,0,10.294,0H42.4a2.556,2.556,0,0,0,2.6-2.509v-7.586A2.577,2.577,0,0,0,43.427,104.812ZM9.538,120.144a3.166,3.166,0,1,1,3.166-3.166A3.161,3.161,0,0,1,9.538,120.144Zm18.139-4.878H14.416a5.152,5.152,0,0,0-9.757,0H2.6a.569.569,0,0,1-.607-.518V109.5a.645.645,0,0,1,.607-.607H27.677Zm1.991-16.457a.6.6,0,0,1,.607-.567h4.789a.56.56,0,0,1,.5.329L38,103.319H29.668Zm6.292,21.335a3.166,3.166,0,1,1,3.166-3.166A3.161,3.161,0,0,1,35.96,120.144Zm6.441-4.878H40.838a5.152,5.152,0,0,0-9.757,0H29.668V105.31h9.767l3.216,1.354a.562.562,0,0,1,.358.5v7.586h0A.569.569,0,0,1,42.4,115.265Z" transform="translate(0 -96.25)"/>
    </g>
  </g>
</svg>
