<svg xmlns="http://www.w3.org/2000/svg" width="46" height="23" viewBox="0 0 46 23">
  <g id="car" transform="translate(0 -128)">
    <g id="Group_127" data-name="Group 127" transform="translate(3.833 141.417)">
      <g id="Group_126" data-name="Group 126">
        <path id="Path_66" data-name="Path 66" d="M47.459,277.333a4.792,4.792,0,1,0,4.792,4.792A4.8,4.8,0,0,0,47.459,277.333Zm0,7.667a2.875,2.875,0,1,1,2.875-2.875A2.878,2.878,0,0,1,47.459,285Z" transform="translate(-42.667 -277.333)"/>
      </g>
    </g>
    <g id="Group_129" data-name="Group 129" transform="translate(32.583 141.417)">
      <g id="Group_128" data-name="Group 128">
        <path id="Path_67" data-name="Path 67" d="M367.459,277.333a4.792,4.792,0,1,0,4.792,4.792A4.8,4.8,0,0,0,367.459,277.333Zm0,7.667a2.875,2.875,0,1,1,2.875-2.875A2.879,2.879,0,0,1,367.459,285Z" transform="translate(-362.667 -277.333)"/>
      </g>
    </g>
    <g id="Group_131" data-name="Group 131" transform="translate(0 128)">
      <g id="Group_130" data-name="Group 130">
        <path id="Path_68" data-name="Path 68" d="M40.25,135.667H38.629a2.624,2.624,0,0,1-1.637-.575L29.44,129.05A4.818,4.818,0,0,0,26.446,128H12.593a4.782,4.782,0,0,0-3.987,2.133l-1.631,2.45a2.624,2.624,0,0,1-2.183,1.167A4.8,4.8,0,0,0,0,138.542v3.833a4.8,4.8,0,0,0,4.792,4.792.958.958,0,1,0,0-1.917,2.878,2.878,0,0,1-2.875-2.875v-3.833a2.878,2.878,0,0,1,2.875-2.875,4.53,4.53,0,0,0,3.778-2.022L10.2,131.2a2.872,2.872,0,0,1,2.392-1.28H26.446a2.892,2.892,0,0,1,1.8.631l7.552,6.039a4.545,4.545,0,0,0,2.835,1h1.62c2.812,0,3.833,2.865,3.833,4.792a2.783,2.783,0,0,1-2.875,2.875.958.958,0,1,0,0,1.917A4.687,4.687,0,0,0,46,142.375C46,139.122,43.986,135.667,40.25,135.667Z" transform="translate(0 -128)"/>
      </g>
    </g>
    <g id="Group_133" data-name="Group 133" transform="translate(11.5 145.25)">
      <g id="Group_132" data-name="Group 132">
        <path id="Path_69" data-name="Path 69" d="M150.042,320H128.958a.958.958,0,1,0,0,1.917h21.083a.958.958,0,1,0,0-1.917Z" transform="translate(-128 -320)"/>
      </g>
    </g>
    <g id="Group_135" data-name="Group 135" transform="translate(21.083 131.833)">
      <g id="Group_134" data-name="Group 134">
        <path id="Path_70" data-name="Path 70" d="M245.208,174.5h-8.625v-2.875a.958.958,0,1,0-1.917,0v3.833a.959.959,0,0,0,.958.958h9.583a.958.958,0,0,0,0-1.917Z" transform="translate(-234.666 -170.666)"/>
      </g>
    </g>
    <g id="Group_137" data-name="Group 137" transform="translate(9.583 131.834)">
      <g id="Group_136" data-name="Group 136">
        <path id="Path_71" data-name="Path 71" d="M115.293,174.5h-6.116l1.225-2.446a.959.959,0,1,0-1.715-.857l-1.917,3.833a.958.958,0,0,0,.857,1.386h7.667a.958.958,0,0,0,0-1.917Z" transform="translate(-106.668 -170.671)"/>
      </g>
    </g>
    <g id="Group_139" data-name="Group 139" transform="translate(23 139.5)">
      <g id="Group_138" data-name="Group 138">
        <path id="Path_72" data-name="Path 72" d="M258.875,256h-1.917a.958.958,0,1,0,0,1.917h1.917a.958.958,0,1,0,0-1.917Z" transform="translate(-256 -256)"/>
      </g>
    </g>
  </g>
</svg>
