<?xml version="1.0"?>
<svg xmlns="http://www.w3.org/2000/svg" xmlns:xlink="http://www.w3.org/1999/xlink" xmlns:svgjs="http://svgjs.com/svgjs" version="1.1" width="512" height="512" x="0" y="0" viewBox="0 0 512 512" style="enable-background:new 0 0 512 512" xml:space="preserve" class=""><g transform="matrix(1,0,0,1,64.99999999999997,0)"><path xmlns="http://www.w3.org/2000/svg" d="m195 300c57.890625 0 105-47.109375 105-105s-47.109375-105-105-105-105 47.109375-105 105 47.109375 105 105 105zm-49.394531-115.605469 34.394531 34.394531 64.394531-64.394531 21.210938 21.210938-85.605469 85.605469-55.605469-55.605469zm0 0" fill="#6E8BFF" data-original="#000000" style="" class=""/><path xmlns="http://www.w3.org/2000/svg" d="m195 512 155.902344-199.871094.175781-.21875c25.460937-33.925781 38.921875-74.355468 38.921875-116.910156 0-107.519531-87.480469-195-195-195s-195 87.480469-195 195c0 42.554688 13.460938 82.984375 39.097656 117.128906zm0-452c74.441406 0 135 60.558594 135 135s-60.558594 135-135 135-135-60.558594-135-135 60.558594-135 135-135zm0 0" fill="#6E8BFF" data-original="#000000" style="" class=""/></g></svg>
