<svg xmlns="http://www.w3.org/2000/svg" width="40" height="27.695" viewBox="0 0 40 27.695">
  <g id="motorbike" transform="translate(0 -77.982)">
    <g id="Group_140" data-name="Group 140" transform="translate(0 77.982)">
      <path id="Path_73" data-name="Path 73" d="M33.444,92.525a6.461,6.461,0,0,0-1.925.292l-.884-1.744a8.251,8.251,0,0,1,3.471-.458,1.114,1.114,0,0,0,1.207-1.1l-.024-2.028c-.071-.347-1.8-8.418-9.531-9.491a1.115,1.115,0,0,0-1.176,1.531c.181.418.371.915.552,1.444l-1.815-1.026a1.111,1.111,0,1,0-1.1,1.933l3.716,2.1a9.836,9.836,0,0,1,.2,1.759,7.587,7.587,0,0,0-4.221-.513,7.52,7.52,0,0,0-4.552,2.927C14.4,86.742,4.749,82.758.371,88.131a1.142,1.142,0,0,0-.252.7V91.76a1.112,1.112,0,0,0,1.767.9,7.915,7.915,0,0,1,9.483.079l-1.01,1.01a6.563,6.563,0,1,0,2.785,5.357,6.489,6.489,0,0,0-1.215-3.787l1.01-1.01a7.913,7.913,0,0,1,1.617,4.8,1.111,1.111,0,0,0,1.112,1.112H23.8a1.111,1.111,0,0,0,1.112-1.112,8.492,8.492,0,0,1,3.724-7.03l.884,1.759a6.548,6.548,0,1,0,3.921-1.31ZM6.588,103.444a4.347,4.347,0,1,1,2.185-8.1L5.807,98.308a1.11,1.11,0,1,0,1.57,1.57l2.966-2.966a4.276,4.276,0,0,1,.592,2.185A4.35,4.35,0,0,1,6.588,103.444Zm16.181-5.46H16.734A10.212,10.212,0,0,0,6.6,88.9a10.084,10.084,0,0,0-4.237.923v-.568C6.5,84.92,17.1,90.482,17.207,90.545a1.109,1.109,0,0,0,1.444-.363,5.811,5.811,0,0,1,3.661-2.769,5.878,5.878,0,0,1,4.008.907,1.116,1.116,0,0,0,1.657-.45c.86-1.909.095-5.089-.584-7.179,4.26,1.665,5.523,6.351,5.7,7.132v.544A10.746,10.746,0,0,0,22.769,97.985Zm10.675,5.46a4.343,4.343,0,0,1-2.88-7.6l1.886,3.748a1.11,1.11,0,1,0,1.98-1l-1.893-3.755a4.244,4.244,0,0,1,.9-.095,4.351,4.351,0,0,1,.008,8.7Z" transform="translate(0 -77.982)"/>
    </g>
  </g>
</svg>
