<?xml version="1.0"?>
<svg xmlns="http://www.w3.org/2000/svg" xmlns:xlink="http://www.w3.org/1999/xlink" xmlns:svgjs="http://svgjs.com/svgjs" version="1.1" width="512" height="512" x="0" y="0" viewBox="0 0 512 512" style="enable-background:new 0 0 512 512" xml:space="preserve" class=""><g>
<polygon xmlns="http://www.w3.org/2000/svg" style="" points="397.241,203.034 361.931,220.69 344.276,167.724 379.586,167.724 " fill="#504b5a" data-original="#504b5a" class=""/>
<ellipse xmlns="http://www.w3.org/2000/svg" style="" cx="414.897" cy="180.966" rx="17.655" ry="22.069" fill="#dcdbde" data-original="#dcdbde"/>
<path xmlns="http://www.w3.org/2000/svg" style="" d="M379.586,150.069h22.069c7.313,0,13.241,5.929,13.241,13.241v35.31  c0,7.313-5.929,13.241-13.241,13.241h-4.414L379.586,150.069z" fill="#ffc070" data-original="#ff6464" class=""/>
<polygon xmlns="http://www.w3.org/2000/svg" style="" points="326.621,203.034 158.897,203.034 185.379,256 150.069,282.483 141.241,308.966   211.862,335.448 282.483,335.448 300.138,308.966 308.966,308.966 326.621,247.172 " fill="#736f7b" data-original="#736f7b" class=""/>
<path xmlns="http://www.w3.org/2000/svg" style="" d="M216.276,229.517h105.931c7.313,0,13.241-5.929,13.241-13.241l0,0  c0-7.313-5.929-13.241-13.241-13.241H216.276c-7.313,0-13.241,5.929-13.241,13.241l0,0  C203.034,223.588,208.963,229.517,216.276,229.517z" fill="#504b5a" data-original="#504b5a" class=""/>
<path xmlns="http://www.w3.org/2000/svg" style="" d="M264.828,229.517l5.763,17.289c1.909,5.727,6.611,10.081,12.467,11.545l25.908,6.476l13.241-35.31  H264.828z" fill="#625d6b" data-original="#625d6b" class=""/>
<path xmlns="http://www.w3.org/2000/svg" style="" d="M361.588,183.023l7.761,39.346c0.903,4.578-0.043,9.327-2.632,13.209l-43.976,65.964  c-3.112,4.668-8.256,7.578-13.858,7.842l-8.745,0.413V291.31l26.483-79.448L361.588,183.023z" fill="#ffab40" data-original="#d2555a" class=""/>
<path xmlns="http://www.w3.org/2000/svg" style="" d="M79.448,229.517C35.571,229.517,0,265.088,0,308.966s35.571,79.448,79.448,79.448  s79.448-35.571,79.448-79.448S123.326,229.517,79.448,229.517z M79.448,361.931c-29.252,0-52.966-23.713-52.966-52.966  c0-29.252,23.713-52.966,52.966-52.966s52.966,23.713,52.966,52.966C132.414,338.218,108.701,361.931,79.448,361.931z" fill="#504b5a" data-original="#504b5a" class=""/>
<circle xmlns="http://www.w3.org/2000/svg" style="" cx="79.448" cy="308.966" r="35.31" fill="#a7a5ac" data-original="#a7a5ac"/>
<g xmlns="http://www.w3.org/2000/svg">
	<circle style="" cx="79.448" cy="308.966" r="17.655" fill="#504b5a" data-original="#504b5a" class=""/>
	<path style="" d="M432.552,229.517c-43.878,0-79.448,35.571-79.448,79.448s35.571,79.448,79.448,79.448   S512,352.843,512,308.966S476.429,229.517,432.552,229.517z M432.552,361.931c-29.252,0-52.966-23.713-52.966-52.966   c0-29.252,23.713-52.966,52.966-52.966c29.252,0,52.966,23.713,52.966,52.966C485.517,338.218,461.804,361.931,432.552,361.931z" fill="#504b5a" data-original="#504b5a" class=""/>
</g>
<circle xmlns="http://www.w3.org/2000/svg" style="" cx="432.552" cy="308.966" r="35.31" fill="#a7a5ac" data-original="#a7a5ac"/>
<circle xmlns="http://www.w3.org/2000/svg" style="" cx="432.552" cy="308.966" r="17.655" fill="#504b5a" data-original="#504b5a" class=""/>
<g xmlns="http://www.w3.org/2000/svg">
	<path style="" d="M432.552,317.798c-3.647,0-7.06-2.28-8.337-5.913l-58.689-167.686   c-0.612-1.768-2.293-2.957-4.163-2.957h-17.087c-4.879,0-8.828-3.953-8.828-8.828s3.948-8.828,8.828-8.828h17.086   c9.362,0,17.732,5.935,20.828,14.772l58.698,167.69c1.603,4.604-0.819,9.638-5.422,11.25   C434.5,317.633,433.517,317.798,432.552,317.798z" fill="#625d6b" data-original="#625d6b" class=""/>
	<path style="" d="M79.457,317.793c-3.336,0-6.535-1.901-8.025-5.129c-2.044-4.427-0.113-9.673,4.319-11.715   l114.759-52.966c4.431-2.039,9.681-0.104,11.715,4.319c2.044,4.427,0.113,9.673-4.319,11.715L83.147,316.983   C81.949,317.535,80.69,317.793,79.457,317.793z" fill="#625d6b" data-original="#625d6b" class=""/>
	<path style="" d="M247.172,203.034l-65.324,21.774c-9.169,3.057-19.08,3.057-28.248,0l-77.089-25.696   c-8.128-2.709-12.521-11.496-9.812-19.624l0,0c2.293-6.879,9.046-11.253,16.262-10.531l164.212,16.422V203.034z" fill="#625d6b" data-original="#625d6b" class=""/>
</g>
<path xmlns="http://www.w3.org/2000/svg" style="" d="M361.588,183.023L361.588,183.023c2.516,15.096-9.126,28.839-24.43,28.839h-82.153  c-13.715,0-22.635-14.433-16.502-26.7l0.039-0.076c2.676-5.353,7.782-9.075,13.696-9.984l81.154-12.486  C346.792,160.554,359.359,169.65,361.588,183.023z" fill="#ffc070" data-original="#ff6464" class=""/>
<path xmlns="http://www.w3.org/2000/svg" style="" d="M274.492,344.276h-49.827c-9.56,0-18.94-1.703-27.896-5.056l-58.63-21.987  c-4.561-1.716-6.871-6.802-5.164-11.367c1.707-4.574,6.802-6.858,11.371-5.169l58.63,21.987c6.957,2.612,14.259,3.935,21.689,3.935  h49.827c9.276,0,16.819-7.548,16.819-16.823c0-7.25-4.621-13.664-11.509-15.957l-35.423-11.81  c-4.621-1.543-7.121-6.543-5.578-11.168c1.543-4.621,6.5-7.134,11.164-5.582l35.423,11.81c14.104,4.704,23.578,17.846,23.578,32.708  C308.966,328.81,293.5,344.276,274.492,344.276z" fill="#625d6b" data-original="#625d6b" class=""/>
<circle xmlns="http://www.w3.org/2000/svg" style="" cx="233.931" cy="295.724" r="22.069" fill="#504b5a" data-original="#504b5a" class=""/>
<circle xmlns="http://www.w3.org/2000/svg" style="" cx="225.103" cy="242.759" r="13.241" fill="#a7a5ac" data-original="#a7a5ac"/>
<circle xmlns="http://www.w3.org/2000/svg" style="" cx="337.655" cy="187.586" r="15.448" fill="#ffab40" data-original="#d2555a" class=""/>
<g xmlns="http://www.w3.org/2000/svg">
</g>
<g xmlns="http://www.w3.org/2000/svg">
</g>
<g xmlns="http://www.w3.org/2000/svg">
</g>
<g xmlns="http://www.w3.org/2000/svg">
</g>
<g xmlns="http://www.w3.org/2000/svg">
</g>
<g xmlns="http://www.w3.org/2000/svg">
</g>
<g xmlns="http://www.w3.org/2000/svg">
</g>
<g xmlns="http://www.w3.org/2000/svg">
</g>
<g xmlns="http://www.w3.org/2000/svg">
</g>
<g xmlns="http://www.w3.org/2000/svg">
</g>
<g xmlns="http://www.w3.org/2000/svg">
</g>
<g xmlns="http://www.w3.org/2000/svg">
</g>
<g xmlns="http://www.w3.org/2000/svg">
</g>
<g xmlns="http://www.w3.org/2000/svg">
</g>
<g xmlns="http://www.w3.org/2000/svg">
</g>
</g></svg>
