<?xml version="1.0"?>
<svg xmlns="http://www.w3.org/2000/svg" xmlns:xlink="http://www.w3.org/1999/xlink" xmlns:svgjs="http://svgjs.com/svgjs" version="1.1" width="512" height="512" x="0" y="0" viewBox="0 0 512 512" style="enable-background:new 0 0 512 512" xml:space="preserve" class=""><g>
<path xmlns="http://www.w3.org/2000/svg" style="" d="M503.172,322.207v-63.081c0-10.031-5.667-19.201-14.639-23.687l-38.326-19.164l-57.368-71.711  C384.462,134.095,371.78,128,358.372,128H26.483c-9.751,0-17.655,7.904-17.655,17.655v180.966L503.172,322.207z" fill="#ffc070" data-original="#ffdc5a" class=""/>
<path xmlns="http://www.w3.org/2000/svg" style="" d="M8.828,304.552h494.345c4.875,0,8.828,3.953,8.828,8.828v17.655c0,4.875-3.953,8.828-8.828,8.828  H8.828c-4.875,0-8.828-3.953-8.828-8.828v-17.655C0,308.504,3.953,304.552,8.828,304.552z" fill="#ffab40" data-original="#ffc84b" class=""/>
<circle xmlns="http://www.w3.org/2000/svg" style="" cx="83.862" cy="335.448" r="40.46" fill="#ededee" data-original="#ededee"/>
<path xmlns="http://www.w3.org/2000/svg" style="" d="M83.862,384c-26.773,0-48.552-21.779-48.552-48.552c0-26.773,21.779-48.552,48.552-48.552  s48.552,21.779,48.552,48.552C132.414,362.221,110.635,384,83.862,384z M83.862,304.552c-17.039,0-30.897,13.857-30.897,30.897  s13.857,30.897,30.897,30.897s30.897-13.857,30.897-30.897S100.902,304.552,83.862,304.552z" fill="#504b5a" data-original="#504b5a" class=""/>
<circle xmlns="http://www.w3.org/2000/svg" style="" cx="83.862" cy="335.448" r="17.655" fill="#dcdbde" data-original="#dcdbde" class=""/>
<circle xmlns="http://www.w3.org/2000/svg" style="" cx="419.31" cy="335.448" r="40.46" fill="#ededee" data-original="#ededee"/>
<path xmlns="http://www.w3.org/2000/svg" style="" d="M419.305,384c-26.773,0-48.552-21.779-48.552-48.552c0-26.773,21.779-48.552,48.552-48.552  c26.773,0,48.552,21.779,48.552,48.552C467.857,362.221,446.078,384,419.305,384z M419.305,304.552  c-17.039,0-30.897,13.857-30.897,30.897s13.857,30.897,30.897,30.897s30.897-13.857,30.897-30.897S436.344,304.552,419.305,304.552z  " fill="#504b5a" data-original="#504b5a" class=""/>
<circle xmlns="http://www.w3.org/2000/svg" style="" cx="419.31" cy="335.448" r="17.655" fill="#dcdbde" data-original="#dcdbde" class=""/>
<g xmlns="http://www.w3.org/2000/svg">
	<path style="" d="M393.71,145.655h-12.359c-4.364,0-6.856,4.983-4.237,8.474l41.313,55.084   c3.335,4.446,8.567,7.062,14.124,7.062h17.655L393.71,145.655z" fill="#625d6b" data-original="#625d6b"/>
	<path style="" d="M358.4,152.717l42.372,56.497c2.183,2.91,0.106,7.062-3.531,7.062h-97.103   c-4.875,0-8.828-3.953-8.828-8.828v-52.966c0-4.875,3.953-8.828,8.828-8.828h44.138C349.833,145.655,355.065,148.271,358.4,152.717   z" fill="#625d6b" data-original="#625d6b"/>
	<path style="" d="M44.138,216.276h220.69c4.875,0,8.828-3.953,8.828-8.828v-52.966c0-4.875-3.953-8.828-8.828-8.828   H44.138c-4.875,0-8.828,3.953-8.828,8.828v52.966C35.31,212.323,39.263,216.276,44.138,216.276z" fill="#625d6b" data-original="#625d6b"/>
</g>
<rect xmlns="http://www.w3.org/2000/svg" x="141.241" y="145.655" style="" width="17.655" height="70.621" fill="#504b5a" data-original="#504b5a" class=""/>
<path xmlns="http://www.w3.org/2000/svg" style="" d="M450.207,260.414H26.483c-4.875,0-8.828-3.953-8.828-8.828l0,0c0-4.875,3.953-8.828,8.828-8.828  h423.724c4.875,0,8.828,3.953,8.828,8.828l0,0C459.034,256.461,455.082,260.414,450.207,260.414z" fill="#ffab40" data-original="#ffc84b" class=""/>
<path xmlns="http://www.w3.org/2000/svg" style="" d="M17.655,286.897H8.828v-61.793h8.828c4.875,0,8.828,3.953,8.828,8.828v44.138  C26.483,282.944,22.53,286.897,17.655,286.897z" fill="#ff6464" data-original="#ff6464" class=""/>
<path xmlns="http://www.w3.org/2000/svg" style="" d="M476.69,251.586v8.828c0,4.875,3.953,8.828,8.828,8.828h17.655v-10.115  c0-6.057-2.094-11.779-5.707-16.367h-11.948C480.642,242.759,476.69,246.711,476.69,251.586z" fill="#ededee" data-original="#ededee"/>
<g xmlns="http://www.w3.org/2000/svg">
</g>
<g xmlns="http://www.w3.org/2000/svg">
</g>
<g xmlns="http://www.w3.org/2000/svg">
</g>
<g xmlns="http://www.w3.org/2000/svg">
</g>
<g xmlns="http://www.w3.org/2000/svg">
</g>
<g xmlns="http://www.w3.org/2000/svg">
</g>
<g xmlns="http://www.w3.org/2000/svg">
</g>
<g xmlns="http://www.w3.org/2000/svg">
</g>
<g xmlns="http://www.w3.org/2000/svg">
</g>
<g xmlns="http://www.w3.org/2000/svg">
</g>
<g xmlns="http://www.w3.org/2000/svg">
</g>
<g xmlns="http://www.w3.org/2000/svg">
</g>
<g xmlns="http://www.w3.org/2000/svg">
</g>
<g xmlns="http://www.w3.org/2000/svg">
</g>
<g xmlns="http://www.w3.org/2000/svg">
</g>
</g></svg>
