<svg xmlns="http://www.w3.org/2000/svg" width="46" height="32.237" viewBox="0 0 46 32.237">
  <g id="truck" transform="translate(0 -67.004)">
    <g id="Group_141" data-name="Group 141" transform="translate(0 67.004)">
      <path id="Path_80" data-name="Path 80" d="M44.439,81.372l-3.132-1.356-2.66-5.176a4.189,4.189,0,0,0-3.769-2.29H30.3V71.256A4.225,4.225,0,0,0,26.086,67H4.191A4.214,4.214,0,0,0,0,71.256V91.077A2.582,2.582,0,0,0,2.548,93.7h.585c0,.1-.01.144-.01.205a5.32,5.32,0,0,0,10.64.041v-.051a1.6,1.6,0,0,0-.01-.205h17.7v.205a5.32,5.32,0,0,0,10.64.041v-.257h1.325A2.59,2.59,0,0,0,46,91.087V83.754A2.576,2.576,0,0,0,44.439,81.372ZM8.453,97.2a3.266,3.266,0,1,1,3.266-3.266A3.261,3.261,0,0,1,8.453,97.2Zm19.79-5.536H13.269a5.313,5.313,0,0,0-9.633,0H2.589a.532.532,0,0,1-.534-.565V85.808H28.243Zm0-20.4V83.754H2.055V71.266a2.161,2.161,0,0,1,2.136-2.2h21.9a2.176,2.176,0,0,1,2.157,2.188ZM30.3,74.614h4.58a2.168,2.168,0,0,1,1.951,1.16l2.054,3.974H30.3ZM36.777,97.2a3.266,3.266,0,1,1,3.266-3.266A3.261,3.261,0,0,1,36.777,97.2Zm7.179-6.1a.532.532,0,0,1-.534.565H41.594a5.316,5.316,0,0,0-9.633,0H30.3V81.8H40.362l3.266,1.438a.6.6,0,0,1,.329.555Z" transform="translate(0 -67.004)"/>
    </g>
  </g>
</svg>
