<?xml version="1.0"?>
<svg xmlns="http://www.w3.org/2000/svg" xmlns:xlink="http://www.w3.org/1999/xlink" xmlns:svgjs="http://svgjs.com/svgjs" version="1.1" width="512" height="512" x="0" y="0" viewBox="0 0 512 512" style="enable-background:new 0 0 512 512" xml:space="preserve" class=""><g><g xmlns="http://www.w3.org/2000/svg"><path d="m494.303 265.535c0-20.283-16.432-36.732-36.716-36.752l-43.203-.047c-6.258-.006-12.209-2.712-16.327-7.423l-78.824-90.164c-7.441-8.716-18.325-13.736-29.785-13.736h-120.056c-12.476 0-24.206 5.945-31.583 16.006l-37.099 92.416-46.697-.497c-11.339-.192-22.3 4.791-29.12 13.851-1.773 2.355-3.262 4.943-4.41 7.73-1.807 4.388-2.787 9.164-2.787 14.104v45.554c0 20.47 16.594 37.064 37.064 37.064h439.543z" fill="#6e8bff" data-original="#f8e076" style="" class=""/><path d="m61.43 277.929v-11.17c0-8.242-6.682-14.924-14.924-14.924h-27.65c-.757 2.958-1.159 6.039-1.159 9.189v31.829h28.809c8.242.001 14.924-6.681 14.924-14.924z" fill="#e27f86" data-original="#e27f86" style="" class=""/><path d="m144.829 228.838 28.296-77.357c1.624-1.833 3.982-2.908 6.451-2.908h154.889l63.592 72.741c4.119 4.711 10.07 7.416 16.327 7.423z" fill="#ffffff" data-original="#ffffff" style="" class=""/><path d="m70.711 225.837.128-.318-16.825-.179c-1.682-.028-3.353.071-5.005.266z" fill="#5368bf" data-original="#f7d958" style="" class=""/><path d="m457.588 228.783-43.203-.047c-6.258-.006-12.209-2.712-16.327-7.423l-78.824-90.164c-7.441-8.716-18.325-13.736-29.785-13.736h-30c11.46 0 22.345 5.02 29.785 13.736l78.824 90.164c4.119 4.711 10.07 7.416 16.327 7.423l43.203.047c20.283.02 36.716 16.469 36.716 36.752v78.107h30v-78.107c-.001-20.283-16.433-36.732-36.716-36.752z" fill="#5368bf" data-original="#f7d958" style="" class=""/><path d="m398.058 221.314-63.592-72.741h-30l63.592 72.741c4.119 4.711 10.069 7.416 16.327 7.423h30c-6.258-.007-12.209-2.712-16.327-7.423z" fill="#e7e7e7" data-original="#e7e7e7" style="" class=""/><path d="m494.303 274.697v-9.162c0-20.283-16.432-36.732-36.715-36.752l-12.698-.014v24.709c0 11.719 9.5 21.218 21.218 21.218h28.195z" fill="#ffffff" data-original="#ffffff" style="" class=""/><path d="m499.666 354.953h-487.332c-2.67 0-4.834-2.164-4.834-4.834v-22.539c0-2.669 2.164-4.834 4.834-4.834h487.333c2.669 0 4.834 2.164 4.834 4.834v22.539c-.001 2.669-2.165 4.834-4.835 4.834z" fill="#c8c3ca" data-original="#c8c3ca" style="" class=""/><ellipse cx="377.998" cy="345.286" fill="#8c818f" rx="49.596" ry="49.3" data-original="#8c818f" style="" class=""/><ellipse cx="377.998" cy="345.286" fill="#c8c3ca" rx="17.401" ry="17.297" data-original="#c8c3ca" style="" class=""/><ellipse cx="121.144" cy="345.286" fill="#8c818f" rx="49.596" ry="49.3" data-original="#8c818f" style="" class=""/><ellipse cx="121.144" cy="345.286" fill="#c8c3ca" rx="17.401" ry="17.297" data-original="#c8c3ca" style="" class=""/><path d="m377.998 295.985c-5.229 0-10.267.81-15 2.301 20.058 6.32 34.596 24.97 34.596 46.999 0 22.03-14.538 40.679-34.596 46.999 4.733 1.491 9.771 2.301 15 2.301 27.391 0 49.596-22.072 49.596-49.3.001-27.227-22.204-49.3-49.596-49.3z" fill="#766d78" data-original="#766d78" style="" class=""/><path d="m121.144 295.985c-5.229 0-10.267.81-15 2.301 20.058 6.32 34.596 24.97 34.596 46.999 0 22.03-14.539 40.679-34.596 46.999 4.733 1.491 9.771 2.301 15 2.301 27.391 0 49.596-22.072 49.596-49.3.001-27.227-22.205-49.3-49.596-49.3z" fill="#766d78" data-original="#766d78" style="" class=""/><path d="m501.803 315.445v-49.91c0-24.376-19.832-44.228-44.207-44.251l-43.204-.047c-4.097-.004-7.992-1.775-10.688-4.859l-78.767-90.097c-8.879-10.401-21.814-16.366-35.489-16.366h-59.941c-4.142 0-7.5 3.358-7.5 7.5s3.358 7.5 7.5 7.5h59.941c9.279 0 18.056 4.048 24.139 11.172l4.36 4.987h-138.371c-4.608 0-9.006 1.981-12.065 5.435-.622.702-1.107 1.515-1.429 2.397l-28.296 77.357c-.842 2.3-.507 4.867.897 6.874 1.403 2.007 3.698 3.202 6.146 3.202h.003l103.669-.039v78.947h-78.929c-10.1-16.055-28.025-26.761-48.427-26.761-20.409 0-38.341 10.715-48.438 26.78-.124-.006-.247-.019-.373-.019h-45.84c-.857-2.795-1.297-5.701-1.297-8.668v-6.225h21.31c12.365 0 22.424-10.06 22.424-22.424v-11.17c0-12.365-10.06-22.424-22.424-22.424h-16.069c.15-.211.291-.427.447-.634 5.237-6.957 13.823-11.036 23.048-10.862l46.697.497c.027.001.054.001.081.001 3.06 0 5.817-1.861 6.959-4.706l36.728-91.49c5.97-7.672 15.246-12.226 24.994-12.226h30.115c4.142 0 7.5-3.358 7.5-7.5s-3.358-7.5-7.5-7.5h-30.115c-14.808 0-28.875 7.129-37.631 19.072-.372.507-36.1 89.296-36.1 89.296l-41.52-.442c-13.977-.241-27.125 6.059-35.24 16.84-2.181 2.897-3.982 6.055-5.353 9.385-2.224 5.402-3.352 11.108-3.352 16.959v45.554c0 2.957.296 5.874.865 8.734-6.205.637-11.061 5.895-11.061 12.267v22.538c0 6.801 5.533 12.334 12.333 12.334h54.387c7.333 22.954 28.955 39.633 54.424 39.633 25.47 0 47.092-16.679 54.425-39.633h66.396c4.142 0 7.5-3.358 7.5-7.5s-3.358-7.5-7.5-7.5h-63.779c.027-.72.055-1.44.055-2.167 0-5.206-.722-10.246-2.047-15.039h146.755c-1.325 4.793-2.047 9.833-2.047 15.039 0 .727.028 1.447.055 2.167h-48.993c-4.142 0-7.5 3.358-7.5 7.5s3.358 7.5 7.5 7.5h50.641c.321 0 .635-.027.946-.066 7.312 22.988 28.952 39.699 54.447 39.699 25.47 0 47.092-16.679 54.424-39.633h67.243c6.801 0 12.334-5.533 12.334-12.334v-22.538c.001-6.071-4.412-11.12-10.196-12.136zm-447.873-48.685v11.17c0 4.094-3.331 7.424-7.424 7.424h-21.31v-24.33c0-.565.021-1.128.052-1.689h21.257c4.095 0 7.425 3.331 7.425 7.425zm-38.93 80.693v-17.206h51.095c-1.325 4.793-2.047 9.833-2.047 15.039 0 .727.028 1.447.055 2.167zm106.144 39.633c-20.118 0-36.976-14.09-41.115-32.852-.049-.52-.15-1.025-.3-1.509-.439-2.416-.681-4.9-.681-7.44 0-23.049 18.884-41.8 42.096-41.8s42.097 18.751 42.097 41.8-18.885 41.801-42.097 41.801zm365.659-121.551v1.662h-20.695c-7.565 0-13.718-6.154-13.718-13.718v-17.201l5.191.006c16.113.016 29.222 13.138 29.222 29.251zm-98.766-44.288-124.537.047v-65.22h67.21c.113 0 .224-.012.336-.017zm-232.477.087 23.867-65.25c.049-.007.1-.011.149-.011h68.924v65.226zm107.94 93.912v-78.953l173.89-.032v17.217c0 15.835 12.883 28.718 28.718 28.718h20.695v33.049h-60.093c-.093 0-.184.01-.276.014-10.098-16.062-28.028-26.775-48.435-26.775-20.401 0-38.327 10.707-48.426 26.761h-66.073zm114.499 71.84c-23.212 0-42.096-18.751-42.096-41.8s18.884-41.8 42.096-41.8 42.096 18.751 42.096 41.8c0 23.048-18.885 41.8-42.096 41.8zm119.001-39.633h-61.961c.027-.72.055-1.44.055-2.167 0-5.206-.722-10.246-2.047-15.039h63.953z" fill="#000000" data-original="#000000" style="" class=""/><path d="m377.999 320.489c-13.73 0-24.901 11.124-24.901 24.797s11.17 24.797 24.901 24.797c13.73 0 24.9-11.124 24.9-24.797s-11.171-24.797-24.9-24.797zm0 34.593c-5.459 0-9.901-4.395-9.901-9.797s4.441-9.797 9.901-9.797c5.459 0 9.9 4.395 9.9 9.797s-4.442 9.797-9.9 9.797z" fill="#000000" data-original="#000000" style="" class=""/><path d="m121.144 320.489c-13.73 0-24.9 11.124-24.9 24.797s11.17 24.797 24.9 24.797 24.901-11.124 24.901-24.797-11.171-24.797-24.901-24.797zm0 34.593c-5.459 0-9.9-4.395-9.9-9.797s4.441-9.797 9.9-9.797c5.46 0 9.901 4.395 9.901 9.797s-4.441 9.797-9.901 9.797z" fill="#000000" data-original="#000000" style="" class=""/><path d="m300.962 248.214h-11.73c-4.142 0-7.5 3.358-7.5 7.5s3.358 7.5 7.5 7.5h11.73c4.142 0 7.5-3.358 7.5-7.5s-3.358-7.5-7.5-7.5z" fill="#000000" data-original="#000000" style="" class=""/><path d="m162.048 263.214c4.142 0 7.5-3.358 7.5-7.5s-3.358-7.5-7.5-7.5h-11.729c-4.142 0-7.5 3.358-7.5 7.5s3.358 7.5 7.5 7.5z" fill="#000000" data-original="#000000" style="" class=""/></g></g></svg>
