<svg xmlns="http://www.w3.org/2000/svg" width="200" height="180" viewBox="0 0 200 180">
  <g id="Group_6998" data-name="Group 6998" transform="translate(-107 -107)">
    <path id="Path_1042" data-name="Path 1042" d="M517.14,263a.349.349,0,0,1-.2-.063L419.9,195.18a1.756,1.756,0,0,0-2.01,0l-96.339,67.751a.352.352,0,0,1-.4-.576l96.339-67.751a2.459,2.459,0,0,1,2.814,0l97.038,67.755a.352.352,0,0,1-.2.641Z" transform="translate(-211.895 -87.163)" fill="#3f3d56"/>
    <path id="Path_1043" data-name="Path 1043" d="M23.264,76.63,115.2,8.319,207.83,81.49l-87.895,52.24L72.216,122.825Z" transform="translate(91.899 101.607)" fill="#e6e6e6"/>
    <path id="Path_1044" data-name="Path 1044" d="M401.307,642.864H355.89a2.127,2.127,0,0,1,0-4.255h45.418a2.127,2.127,0,0,1,0,4.255Z" transform="translate(-233.165 -375.259)" fill="#6e8bff"/>
    <path id="Path_1045" data-name="Path 1045" d="M372.185,616.864H355.89a2.127,2.127,0,0,1,0-4.255h16.295a2.127,2.127,0,0,1,0,4.255Z" transform="translate(-233.165 -358.405)" fill="#6e8bff"/>
    <path id="Path_1046" data-name="Path 1046" d="M497.205,320.415a2.649,2.649,0,0,1-1.007-.2L439.5,296.63V222.8a2.462,2.462,0,0,1,2.456-2.462H550.728a2.462,2.462,0,0,1,2.456,2.462v73.882l-.107.046-54.835,23.478a2.666,2.666,0,0,1-1.037.209Z" transform="translate(-288.5 -104.337)" fill="#fff"/>
    <path id="Path_1047" data-name="Path 1047" d="M496.881,320.267a2.826,2.826,0,0,1-1.074-.211L439,296.424V222.476a2.638,2.638,0,0,1,2.632-2.638H550.4a2.638,2.638,0,0,1,2.632,2.638v74l-55.048,23.569A2.838,2.838,0,0,1,496.881,320.267ZM439.7,295.954l56.373,23.452a2.142,2.142,0,0,0,1.638-.01l54.621-23.386V222.476a1.935,1.935,0,0,0-1.93-1.935H441.632a1.935,1.935,0,0,0-1.93,1.935Z" transform="translate(-288.491 -103.805)" fill="#3f3d56"/>
    <path id="Path_1048" data-name="Path 1048" d="M512.544,387.837h-.07l-40.281,17.245-55.112,23.594a1.773,1.773,0,0,1-1.362.007l-56.86-23.651-41.27-17.167-.063-.028h-.07A2.462,2.462,0,0,0,315,390.3V497.243a2.462,2.462,0,0,0,2.456,2.462H512.544A2.462,2.462,0,0,0,515,497.243V390.3A2.462,2.462,0,0,0,512.544,387.837ZM514.3,497.243A1.757,1.757,0,0,1,512.544,499H317.456a1.757,1.757,0,0,1-1.754-1.759V390.3a1.761,1.761,0,0,1,1.688-1.759l41.47,17.252,56.59,23.542a2.493,2.493,0,0,0,1.909-.011l54.835-23.478,40.421-17.3A1.763,1.763,0,0,1,514.3,390.3Z" transform="translate(-208 -212.705)" fill="#3f3d56"/>
    <g id="Group_6997" data-name="Group 6997" transform="translate(133.71 41.54)">
      <rect id="Rectangle_17385" data-name="Rectangle 17385" width="20" height="93" rx="10" transform="translate(34.29 98.602) rotate(-45)" fill="#f4586c"/>
      <rect id="Rectangle_17386" data-name="Rectangle 17386" width="20" height="93" rx="10" transform="translate(100.051 84.459) rotate(45)" fill="#f4586c"/>
    </g>
  </g>
</svg>
