<?xml version="1.0"?>
<svg xmlns="http://www.w3.org/2000/svg" xmlns:xlink="http://www.w3.org/1999/xlink" xmlns:svgjs="http://svgjs.com/svgjs" version="1.1" width="512" height="512" x="0" y="0" viewBox="0 0 510.567 510.567" style="enable-background:new 0 0 512 512" xml:space="preserve" class=""><g><g xmlns="http://www.w3.org/2000/svg"><path d="m429.904 226.355-42.19-44.027c-4.42-4.612-10.531-7.22-16.919-7.22h-30.46v179.094l162.732-.119-.445-97.114c0-11.678-8.598-21.573-20.161-23.204z" fill="#fbfbfb" data-original="#fbfbfb" style=""/><path d="m472.622 256.97.445 97.114h30l-.445-97.114c0-11.678-8.598-21.573-20.161-23.204l-25.398-3.581v4.728c9.165 3.266 15.559 11.993 15.559 22.057z" fill="#e7e7e7" data-original="#e7e7e7" style=""/><path d="m502.761 287.284-.139-30.314c0-11.678-8.598-21.573-20.161-23.204l-19.463-2.745v44.262c0 6.628 5.373 12.001 12.001 12.001z" fill="#f7d958" data-original="#f7d958" style="" class=""/><path d="m429.115 225.531-41.401-43.203c-4.42-4.612-10.531-7.22-16.919-7.22h-30.46v81.35h72.275c9.115 0 16.504-7.389 16.504-16.504v-14.423z" fill="#9ec8fc" data-original="#9ec8fc" style=""/><path d="m387.714 182.328c-4.42-4.612-10.531-7.22-16.919-7.22h-30c6.388 0 12.499 2.608 16.919 7.22l31.421 32.789c6.404 6.683 9.979 15.581 9.979 24.837 0 9.115-7.389 16.504-16.504 16.504h30c9.115 0 16.504-7.389 16.504-16.504v-14.423z" fill="#80b6fc" data-original="#80b6fc" style="" class=""/><path d="m494.364 385.034h-478.786c-4.451 0-8.059-3.608-8.059-8.059v-23.566l277.012-20 218.536 20v22.921c0 4.807-3.896 8.704-8.703 8.704z" fill="#c8c3ca" data-original="#c8c3ca" style="" class=""/><ellipse cx="402.357" cy="385.034" fill="#8c818f" rx="50.975" ry="50.671" data-original="#8c818f" style=""/><ellipse cx="402.357" cy="385.034" fill="#c8c3ca" rx="17.884" ry="17.778" data-original="#c8c3ca" style="" class=""/><path d="m386.936 74.864h-372.725c-3.707 0-6.711 3.005-6.711 6.711v271.834h332.56v-172.521c0-3.707 3.005-6.711 6.711-6.711h40.165c10.014 0 18.131-8.118 18.131-18.131v-63.05c.001-10.015-8.117-18.132-18.131-18.132z" fill="#6e8bff" data-original="#77d1b3" style="" class=""/><ellipse cx="152.92" cy="385.034" fill="#8c818f" rx="50.975" ry="50.671" data-original="#8c818f" style=""/><path d="m402.357 334.363c-5.221 0-10.257.784-15 2.233 20.831 6.367 35.975 25.642 35.975 48.437s-15.144 42.07-35.975 48.437c4.743 1.45 9.779 2.233 15 2.233 28.153 0 50.975-22.686 50.975-50.67s-22.823-50.67-50.975-50.67z" fill="#766d78" data-original="#766d78" style="" class=""/><path d="m386.936 74.864h-30c10.014 0 18.131 8.118 18.131 18.131v63.05c0 10.014-8.118 18.131-18.131 18.131h30c10.014 0 18.131-8.118 18.131-18.131v-63.05c.001-10.014-8.117-18.131-18.131-18.131z" fill="#5368bf" data-original="#67b59f" style="" class=""/><path d="m152.92 334.363c-5.221 0-10.257.784-15 2.233 20.831 6.367 35.975 25.642 35.975 48.437s-15.143 42.07-35.975 48.437c4.743 1.45 9.779 2.233 15 2.233 28.153 0 50.975-22.686 50.975-50.67s-22.823-50.67-50.975-50.67z" fill="#766d78" data-original="#766d78" style="" class=""/><ellipse cx="152.92" cy="385.034" fill="#c8c3ca" rx="17.884" ry="17.778" data-original="#c8c3ca" style="" class=""/><path d="m372.668 294.223h7.32c4.143 0 7.5-3.358 7.5-7.5s-3.357-7.5-7.5-7.5h-7.32c-4.143 0-7.5 3.358-7.5 7.5s3.357 7.5 7.5 7.5z" fill="#000000" data-original="#000000" style="" class=""/><path d="m510.122 256.97c0-15.322-11.441-28.491-26.615-30.631l-49.984-7.048-37.605-39.242c9.716-3.647 16.65-13.029 16.65-24.003v-63.051c0-14.133-11.498-25.631-25.631-25.631h-325.597c-4.143 0-7.5 3.358-7.5 7.5s3.357 7.5 7.5 7.5h325.597c5.862 0 10.631 4.769 10.631 10.631v9.592h-57.232c-4.143 0-7.5 3.358-7.5 7.5s3.357 7.5 7.5 7.5h57.232v15.499h-57.232c-4.143 0-7.5 3.358-7.5 7.5s3.357 7.5 7.5 7.5h57.232v7.959c0 5.862-4.769 10.631-10.631 10.631h-40.165c-7.836 0-14.211 6.375-14.211 14.211v165.021h-33.609c-4.143 0-7.5 3.358-7.5 7.5s3.357 7.5 7.5 7.5h50.218c-2.384 5.182-4.023 10.767-4.785 16.625h-133.493c-.762-5.858-2.4-11.443-4.785-16.625h62.844c4.143 0 7.5-3.358 7.5-7.5s-3.357-7.5-7.5-7.5h-72.797c-10.703-11.694-26.122-19.045-43.234-19.045s-32.531 7.351-43.234 19.045h-94.686v-263.545h16.34c4.143 0 7.5-3.358 7.5-7.5s-3.357-7.5-7.5-7.5h-17.129c-7.836 0-14.211 6.375-14.211 14.212l.02 295.4c0 8.579 6.98 15.559 15.559 15.559h79.37c3.712 28.543 28.285 50.67 57.972 50.67s54.26-22.127 57.972-50.67h133.492c3.712 28.543 28.286 50.67 57.973 50.67s54.26-22.127 57.972-50.67h34.035c8.935 0 16.203-7.269 16.203-16.204zm-15 .034.104 22.78h-20.228c-2.482 0-4.501-2.019-4.501-4.5v-35.63l10.915 1.539c7.816 1.101 13.71 7.884 13.71 15.811zm-118.196-75.328c.27.433.587.846.954 1.229l44.196 46.121c-.101 1.746-.189 4.134-.265 7.532-.152 6.837-5.837 12.4-12.671 12.4h-61.58v-67.282zm-29.365 164.233v-81.95h61.58c14.924 0 27.335-12.142 27.667-27.065.016-.718.033-1.374.05-1.983l18.64 2.628v37.745c0 10.752 8.748 19.5 19.501 19.5h20.297l.235 51.125h-49.938c-10.703-11.694-26.122-19.045-43.234-19.045-17.113 0-32.531 7.351-43.235 19.045zm-332.542 31.066v-16.066h84.713c-2.384 5.182-4.023 10.767-4.785 16.625h-79.37c-.306 0-.558-.251-.558-.559zm137.901 51.229c-23.972 0-43.475-19.366-43.475-43.17s19.503-43.17 43.475-43.17 43.475 19.366 43.475 43.17-19.503 43.17-43.475 43.17zm249.437 0c-23.973 0-43.476-19.366-43.476-43.17s19.503-43.17 43.476-43.17c23.972 0 43.475 19.366 43.475 43.17s-19.503 43.17-43.475 43.17zm93.21-51.874c0 .663-.54 1.204-1.203 1.204h-34.034c-.762-5.858-2.4-11.443-4.785-16.625h40.023v15.421z" fill="#000000" data-original="#000000" style="" class=""/><path d="m402.357 359.756c-13.997 0-25.385 11.339-25.385 25.278 0 13.938 11.388 25.277 25.385 25.277s25.384-11.339 25.384-25.277c0-13.939-11.387-25.278-25.384-25.278zm0 35.555c-5.727 0-10.385-4.61-10.385-10.277s4.658-10.278 10.385-10.278c5.726 0 10.384 4.611 10.384 10.278s-4.658 10.277-10.384 10.277z" fill="#000000" data-original="#000000" style="" class=""/><path d="m152.92 359.756c-13.997 0-25.385 11.339-25.385 25.278 0 13.938 11.388 25.277 25.385 25.277s25.384-11.339 25.384-25.277c0-13.939-11.387-25.278-25.384-25.278zm0 35.555c-5.727 0-10.385-4.61-10.385-10.277s4.658-10.278 10.385-10.278c5.726 0 10.384 4.611 10.384 10.278s-4.659 10.277-10.384 10.277z" fill="#000000" data-original="#000000" style="" class=""/><path d="m59.06 138.541h32.42c4.143 0 7.5-3.358 7.5-7.5s-3.357-7.5-7.5-7.5h-32.42c-4.143 0-7.5 3.358-7.5 7.5s3.357 7.5 7.5 7.5z" fill="#000000" data-original="#000000" style="" class=""/><path d="m59.06 171.868h81.091c4.143 0 7.5-3.358 7.5-7.5s-3.357-7.5-7.5-7.5h-81.091c-4.143 0-7.5 3.358-7.5 7.5s3.357 7.5 7.5 7.5z" fill="#000000" data-original="#000000" style="" class=""/><path d="m59.06 205.194h81.091c4.143 0 7.5-3.358 7.5-7.5s-3.357-7.5-7.5-7.5h-81.091c-4.143 0-7.5 3.358-7.5 7.5s3.357 7.5 7.5 7.5z" fill="#000000" data-original="#000000" style="" class=""/><path d="m59.06 238.521h81.091c4.143 0 7.5-3.358 7.5-7.5s-3.357-7.5-7.5-7.5h-81.091c-4.143 0-7.5 3.358-7.5 7.5s3.357 7.5 7.5 7.5z" fill="#000000" data-original="#000000" style="" class=""/></g></g></svg>
