<?xml version="1.0"?>
<svg xmlns="http://www.w3.org/2000/svg" xmlns:xlink="http://www.w3.org/1999/xlink" xmlns:svgjs="http://svgjs.com/svgjs" version="1.1" width="512" height="512" x="0" y="0" viewBox="0 0 512 512" style="enable-background:new 0 0 512 512" xml:space="preserve" class=""><g><g xmlns="http://www.w3.org/2000/svg"><path d="m499.003 326.519c3.466-5.051 5.498-11.163 5.498-17.752v-75.929c0-12.372-10.008-22.414-22.38-22.455l-67.286-.254c-3.279-.012-6.362-1.564-8.326-4.189l-55.653-74.403c-1.972-2.637-5.072-4.189-8.365-4.189h-55.027c-5.769 0-10.447 4.677-10.447 10.446v188.725z" fill="#6e8bff" data-original="#62a4fb" style="" class=""/><path d="m482.12 210.383-67.286-.254c-3.279-.012-6.362-1.564-8.326-4.189l-55.653-74.403c-1.972-2.637-5.072-4.189-8.365-4.189h-30c3.293 0 6.393 1.553 8.365 4.189l55.653 74.403c1.964 2.626 5.047 4.177 8.326 4.189l67.286.254c12.372.041 22.38 10.083 22.38 22.455v75.929c0 6.589-2.032 12.701-5.498 17.752h30c3.466-5.051 5.498-11.163 5.498-17.752v-75.929c0-12.372-10.008-22.414-22.38-22.455z" fill="#5368bf" data-original="#5392f9" style="" class=""/><path d="m504.5 256.969v-24.131c0-12.372-10.008-22.414-22.38-22.455l-32.783-.124v29.954c0 9.254 7.502 16.756 16.756 16.756z" fill="#ffffff" data-original="#ffffff" style="" class=""/><path d="m318.443 210.116h96.174c-3.197-.079-6.188-1.609-8.109-4.176l-35.064-46.876h-53.002c-4.464 0-8.082 3.618-8.082 8.082v34.888c.001 4.463 3.619 8.082 8.083 8.082z" fill="#ffffff" data-original="#ffffff" style="" class=""/><path d="m406.508 205.94-35.063-46.876h-30l35.063 46.876c1.92 2.567 4.912 4.097 8.109 4.176h30c-3.197-.079-6.189-1.609-8.109-4.176z" fill="#e7e7e7" data-original="#e7e7e7" style="" class=""/><path d="m41.626 312.81h-34.126v-98.144c0-5.499 4.458-9.956 9.956-9.956h24.169v108.1z" fill="#544f56" data-original="#544f56" style="" class=""/><path d="m41.626 204.71h235.391v108.101h-235.391z" fill="#6e8bff" data-original="#62a4fb" style="" class=""/><path d="m499.667 344.39h-486.476c-3.143 0-5.691-2.548-5.691-5.691v-27.026h492.166c2.669 0 4.834 2.164 4.834 4.834v23.05c0 2.669-2.164 4.833-4.833 4.833z" fill="#c8c3ca" data-original="#c8c3ca" style="" class=""/><ellipse cx="374.165" cy="334.57" fill="#8c818f" rx="50.384" ry="50.083" data-original="#8c818f" style="" class=""/><ellipse cx="374.165" cy="334.57" fill="#c8c3ca" rx="17.677" ry="17.571" data-original="#c8c3ca" style="" class=""/><ellipse cx="113.233" cy="334.57" fill="#8c818f" rx="50.384" ry="50.083" data-original="#8c818f" style="" class=""/><path d="m247.016 204.71h30v108.101h-30z" fill="#5368bf" data-original="#5392f9" style="" class=""/><path d="m374.165 284.487c-5.224 0-10.262.791-15 2.258 20.501 6.346 35.384 25.358 35.384 47.826 0 22.467-14.883 41.479-35.384 47.825 4.738 1.467 9.776 2.258 15 2.258 27.826 0 50.384-22.423 50.384-50.083 0-27.661-22.558-50.084-50.384-50.084z" fill="#766d78" data-original="#766d78" style="" class=""/><path d="m113.233 284.487c-5.224 0-10.262.791-15 2.258 20.501 6.346 35.384 25.358 35.384 47.826 0 22.467-14.883 41.479-35.384 47.825 4.738 1.467 9.776 2.258 15 2.258 27.826 0 50.384-22.423 50.384-50.083 0-27.661-22.558-50.084-50.384-50.084z" fill="#766d78" data-original="#766d78" style="" class=""/><ellipse cx="113.233" cy="334.57" fill="#c8c3ca" rx="17.677" ry="17.571" data-original="#c8c3ca" style="" class=""/><path d="m512 232.838c0-16.463-13.393-29.9-29.852-29.955l-67.286-.254c-.92-.003-1.799-.446-2.35-1.182l-55.653-74.403c-3.371-4.506-8.743-7.197-14.37-7.197h-55.027c-9.896 0-17.946 8.051-17.946 17.947v59.416h-22.865v-69.862c0-4.142-3.358-7.5-7.5-7.5h-35.428c-18.166 0-35.959 6.28-50.101 17.684l-74.009 59.678h-62.157c-9.625 0-17.456 7.83-17.456 17.456v124.033c0 7.274 5.918 13.191 13.191 13.191h44.839c7.408 23.313 29.351 40.263 55.204 40.263 25.852 0 47.795-16.949 55.203-40.263h78.58c4.142 0 7.5-3.358 7.5-7.5s-3.358-7.5-7.5-7.5h-75.958c.031-.771.059-1.542.059-2.32 0-5.333-.748-10.492-2.118-15.397h149.4c-1.37 4.904-2.118 10.064-2.118 15.397 0 .778.028 1.55.059 2.32h-39.325c-4.143 0-7.5 3.358-7.5 7.5s3.357 7.5 7.5 7.5h41.946c7.408 23.313 29.351 40.263 55.203 40.263s47.796-16.949 55.203-40.263h70.298c6.801 0 12.334-5.533 12.334-12.333zm-15 0v16.631h-30.907c-5.103 0-9.256-4.152-9.256-9.256v-22.425l25.259.095c8.218.028 14.904 6.736 14.904 14.955zm-102.345-30.222h-76.212c-.321 0-.582-.261-.582-.582v-34.888c0-.321.261-.582.582-.582h49.245zm-377.199 9.594h16.669v91.963h-19.125v-89.507c0-1.355 1.102-2.456 2.456-2.456zm-2.456 124.68v-17.717h42.468c-1.37 4.904-2.118 10.064-2.118 15.397 0 .778.028 1.55.059 2.32zm98.233 40.263c-23.646 0-42.884-19.103-42.884-42.583s19.238-42.583 42.884-42.583c16.035 0 30.035 8.791 37.391 21.768.283.982.758 1.881 1.387 2.652 2.629 5.513 4.106 11.669 4.106 18.162 0 23.481-19.238 42.584-42.884 42.584zm0-100.166c-20.706 0-38.898 10.879-49.13 27.186h-14.978v-91.963h107.697c4.142 0 7.5-3.358 7.5-7.5s-3.358-7.5-7.5-7.5h-53.312l59.528-48.002c11.484-9.26 25.933-14.36 40.685-14.36h27.928v62.362h-44.829c-4.142 0-7.5 3.358-7.5 7.5s3.358 7.5 7.5 7.5h82.693v91.963h-107.152c-10.232-16.307-28.423-27.186-49.13-27.186zm171.283 27.186v-99.463-66.916c0-1.625 1.321-2.947 2.946-2.947h55.027c.924 0 1.806.442 2.359 1.182l11.619 15.534h-38.026c-8.592 0-15.582 6.99-15.582 15.582v34.888c0 8.592 6.99 15.582 15.582 15.582l123.395.116v22.482c0 13.375 10.881 24.256 24.256 24.256h30.908v39.704h-72.563c-.37 0-.731.036-1.087.087-10.222-16.356-28.443-27.274-49.187-27.274-20.706 0-38.898 10.879-49.129 27.186h-40.518zm89.649 72.98c-23.646 0-42.883-19.103-42.883-42.583s19.237-42.583 42.883-42.583 42.884 19.103 42.884 42.583c-.001 23.48-19.238 42.583-42.884 42.583zm122.835-40.263h-65.011c.031-.771.059-1.542.059-2.32 0-5.333-.748-10.492-2.118-15.397h67.07z" fill="#000000" data-original="#000000" style="" class=""/><path d="m374.165 309.499c-13.883 0-25.177 11.247-25.177 25.071s11.294 25.071 25.177 25.071 25.178-11.247 25.178-25.071c-.001-13.824-11.296-25.071-25.178-25.071zm0 35.142c-5.611 0-10.177-4.518-10.177-10.071s4.565-10.071 10.177-10.071 10.178 4.518 10.178 10.071c-.001 5.553-4.566 10.071-10.178 10.071z" fill="#000000" data-original="#000000" style="" class=""/><path d="m113.233 309.499c-13.883 0-25.177 11.247-25.177 25.071s11.294 25.071 25.177 25.071c13.882 0 25.177-11.247 25.177-25.071s-11.294-25.071-25.177-25.071zm0 35.142c-5.612 0-10.177-4.518-10.177-10.071s4.565-10.071 10.177-10.071c5.611 0 10.177 4.518 10.177 10.071s-4.565 10.071-10.177 10.071z" fill="#000000" data-original="#000000" style="" class=""/><path d="m326.438 226.267h-13.951c-4.143 0-7.5 3.358-7.5 7.5s3.357 7.5 7.5 7.5h13.951c4.143 0 7.5-3.358 7.5-7.5s-3.357-7.5-7.5-7.5z" fill="#000000" data-original="#000000" style="" class=""/></g></g></svg>
