<svg id="weight" xmlns="http://www.w3.org/2000/svg" width="80" height="98.708" viewBox="0 0 80 98.708">
  <path id="Trazado_16" data-name="Trazado 16" d="M83.085,154.977a7.9,7.9,0,0,1-.2-8.218l6.007-10.4-2.669-6.539-7.8.494L74.44,137.2a7.412,7.412,0,0,1-9.148,3.157,37.266,37.266,0,0,0-27.1,0,7.411,7.411,0,0,1-9.148-3.157l-3.978-6.89-6.924,1.279L14.6,136.355l6.007,10.4a7.9,7.9,0,0,1-.206,8.218,37.026,37.026,0,0,0-5.85,20.03c0,20.541,16.653,28.491,37.194,28.491s37.2-7.95,37.2-28.491A37.009,37.009,0,0,0,83.085,154.977Zm0,0" transform="translate(-11.742 -104.789)" fill="#5c5e71"/>
  <path id="Trazado_17" data-name="Trazado 17" d="M51.741,195.249c-20.541,0-37.194-7.95-37.194-28.491a37.026,37.026,0,0,1,5.85-20.03,7.9,7.9,0,0,0,.206-8.218l-6.007-10.4,3.61-8.509,6.86,2.464,3.978,6.89a7.411,7.411,0,0,0,9.148,3.157,36.975,36.975,0,0,1,6.995-1.97v0C33.6,133.763,7.518,183.132,51.741,195.249Zm0,0" transform="translate(-11.742 -96.541)" fill="#3b3d4d"/>
  <path id="Trazado_18" data-name="Trazado 18" d="M77.149,10.523A20.829,20.829,0,0,0,58.925,0H21.08A20.83,20.83,0,0,0,2.856,10.521a20.832,20.832,0,0,0,0,21.045L13.327,25.52A8.954,8.954,0,0,1,21.08,12.09h37.7a9.092,9.092,0,0,1,7.905,4.49,8.858,8.858,0,0,1-.006,8.941l10.47,6.045A20.824,20.824,0,0,0,77.149,10.523Zm0,0" transform="translate(-0.002)" fill="#95aaff"/>
  <path id="Trazado_19" data-name="Trazado 19" d="M31.441,0H21.077A20.829,20.829,0,0,0,2.853,10.524a20.83,20.83,0,0,0,0,21.046l10.47-6.045a8.954,8.954,0,0,1,7.754-13.43H31.836C22.776,10.462,21.077,0,31.441,0Zm0,0" transform="translate(0 -0.003)" fill="#6e8bff"/>
  <path id="Trazado_20" data-name="Trazado 20" d="M154.618,279.587A16.586,16.586,0,1,1,138.032,263,16.586,16.586,0,0,1,154.618,279.587Zm0,0" transform="translate(-98.032 -212.296)" fill="#7d808e"/>
  <g id="Grupo_6857" data-name="Grupo 6857" transform="translate(21.902 49.192)">
    <path id="Trazado_21" data-name="Trazado 21" d="M167.182,324.027l3.176-3.973a.745.745,0,0,0,.154-.478,1.5,1.5,0,0,0-1.39-1.247.784.784,0,0,0-.684.361l-3.768,5.128v-4.723c0-.528-.608-.765-1.212-.765-.559,0-1.212.2-1.212.765v11.612c0,.538.628.783,1.212.783.6,0,1.212-.269,1.212-.783v-3.484l.91-1.146,3.32,5.031a.958.958,0,0,0,.846.471,1.456,1.456,0,0,0,1.444-1.212.739.739,0,0,0-.133-.438Zm0,0" transform="translate(-152.869 -306.15)" fill="#3b3d4d"/>
    <path id="Trazado_22" data-name="Trazado 22" d="M225.911,324.527h-3.037a.867.867,0,0,0-.764.962c0,.477.262.962.764.962h1.4v1c0,1.311-.632,2-1.825,2s-1.807-.674-1.807-2v-4.984c0-1.33.614-2,1.825-2a1.59,1.59,0,0,1,1.807,1.72c.017.511.435.781,1.212.781.748,0,1.212-.194,1.212-1.158,0-2.082-1.737-3.48-4.32-3.48-3.619,0-4.159,2.594-4.159,4.141v4.984c0,2.67,1.5,4.141,4.23,4.141s4.249-1.471,4.249-4.141v-2.126A.768.768,0,0,0,225.911,324.527Zm0,0" transform="translate(-198.047 -306.15)" fill="#3b3d4d"/>
    <path id="Trazado_23" data-name="Trazado 23" d="M131.7,291.356a18.1,18.1,0,1,1,18.1-18.1A18.119,18.119,0,0,1,131.7,291.356Zm0-33.173a15.075,15.075,0,1,0,15.074,15.075A15.092,15.092,0,0,0,131.7,258.183Zm0,0" transform="translate(-113.605 -255.16)" fill="#3b3d4d"/>
  </g>
</svg>
